<svg version="1.2" xmlns="http://www.w3.org/2000/svg" viewBox="0 0 55 55" width="55" height="55"><style>.a{fill:#2f303b}</style><path class="a" d="m54.4 43.1q0.2 1.3-0.8 2.3l-7.6 7.6q-0.6 0.6-1.4 1-0.8 0.4-1.6 0.6-0.1 0-0.4 0-0.3 0-0.7 0-1.1 0-3.6-0.4-2.4-0.3-6-1.8-3.5-1.5-8-4.4-4.5-3-9.5-8.1-4.1-4-6.7-7.7-2.7-3.6-4.3-6.7-1.6-3.1-2.4-5.6-0.8-2.5-1.1-4.4-0.3-1.8-0.2-2.8 0-1.1 0-1.2 0.1-0.8 0.6-1.6 0.4-0.9 0.9-1.4l7.7-7.7q0.8-0.8 1.8-0.8 0.8 0 1.4 0.4 0.5 0.5 0.9 1.1l6.2 11.7q0.5 1 0.3 2.1-0.3 1.1-1 1.8l-2.8 2.9q-0.1 0.1-0.2 0.3-0.1 0.3-0.1 0.5 0.2 1.2 1 2.7 0.7 1.4 2.2 3.4 1.4 2 4 4.6 2.6 2.7 4.6 4.2 2.1 1.4 3.4 2.1 1.4 0.7 2.1 0.9l0.7 0.1q0.1 0 0.4-0.1 0.2-0.1 0.4-0.2l3.2-3.3q1.1-1 2.5-1 0.9 0 1.5 0.4h0.1l11.1 6.6q1.2 0.7 1.4 1.9z"/></svg>